<?xml version="1.0" encoding="utf-8"?>
<!-- Generator: Adobe Illustrator 22.1.0, SVG Export Plug-In . SVG Version: 6.00 Build 0)  -->
<svg version="1.1" id="Capa_1" xmlns="http://www.w3.org/2000/svg" xmlns:xlink="http://www.w3.org/1999/xlink" x="0px" y="0px"
	 viewBox="0 0 100 100" style="enable-background:new 0 0 100 100;" xml:space="preserve">
<style type="text/css">
	.st0{fill:#FFFFFF;}
</style>
<g>
	<path class="st0" d="M72.9,0H27.1c-4.2,0-7.6,3.7-7.6,8.3v83.3c0,4.6,3.4,8.3,7.6,8.3h45.7c4.2,0,7.6-3.7,7.6-8.3V8.3
		C80.5,3.7,77,0,72.9,0z M76.7,91.6c0,2.3-1.7,4.2-3.8,4.2H27.1c-2.1,0-3.8-1.9-3.8-4.2v-8.3h53.3L76.7,91.6L76.7,91.6z M76.7,79.1
		H23.3V8.3c0-2.3,1.7-4.2,3.8-4.2h45.7c2.1,0,3.8,1.9,3.8,4.2V79.1z"/>
	<path class="st0" d="M48.1,12.5h3.8c1.1,0,1.9-0.9,1.9-2.1s-0.9-2.1-1.9-2.1h-3.8c-1.1,0-1.9,0.9-1.9,2.1
		C46.2,11.6,47,12.5,48.1,12.5z"/>
	<path class="st0" d="M44.3,92.4h11.4c1.1,0,1.9-0.9,1.9-1.9c0-1.1-0.9-1.9-1.9-1.9H44.3c-1.1,0-1.9,0.9-1.9,1.9
		C42.4,91.5,43.2,92.4,44.3,92.4z"/>
	<ellipse class="st0" cx="70.9" cy="10.4" rx="1.9" ry="2.1"/>
</g>
</svg>
