<?xml version="1.0" encoding="utf-8"?>
<!-- Generator: Adobe Illustrator 22.1.0, SVG Export Plug-In . SVG Version: 6.00 Build 0)  -->
<svg version="1.1" id="Layer_1" xmlns="http://www.w3.org/2000/svg" xmlns:xlink="http://www.w3.org/1999/xlink" x="0px" y="0px"
	 viewBox="0 0 100 100" style="enable-background:new 0 0 100 100;" xml:space="preserve">
<style type="text/css">
	.st0{fill:#FFFFFF;}
</style>
<g>
	<path class="st0" d="M50,100c-0.7,0-1.3-0.3-1.8-0.8c-1.4-1.5-35.1-37-35.1-60.7C13.1,16.9,29.3,0,50,0s36.9,16.9,36.9,38.5
		c0,23.7-33.7,59.2-35.1,60.7c0,0-0.1,0.1-0.1,0.1C51.2,99.8,50.6,100,50,100L50,100z M50,4.9c-18.2,0-32,14.4-32,33.6
		c0,18.5,24.3,46.9,31.8,55.2c0,0.1,0.1,0.1,0.1,0.1c0,0,0.1,0,0.1-0.1C57.6,85.5,82,57.1,82,38.5C82,19.4,68.2,4.9,50,4.9z"/>
	<path class="st0" d="M50,19.4c-9.7,0-17.5,7.8-17.5,17.5S40.4,54.4,50,54.4s17.5-7.8,17.5-17.5S59.6,19.4,50,19.4z M50,50.1
		c-7.3,0-13.3-5.9-13.3-13.3S42.7,23.6,50,23.6s13.3,5.9,13.3,13.3C63.2,44.2,57.3,50.1,50,50.1z"/>
	<path class="st0" d="M1.8,100c-1,0-1.8-0.8-1.8-1.8v-1.2c0-1,0.8-1.8,1.8-1.8h4.5c1,0,1.8,0.8,1.8,1.8v1.2c0,1-0.8,1.8-1.8,1.8H1.8
		z"/>
	<path class="st0" d="M12,100c-0.9,0-1.6-0.8-1.6-1.8v-1.2c0-1,0.7-1.8,1.6-1.8h24.9c0.9,0,1.6,0.8,1.6,1.8v1.2c0,1-0.7,1.8-1.6,1.8
		H12z"/>
	<path class="st0" d="M93.6,100c-1,0-1.8-0.8-1.8-1.8v-1.2c0-1,0.8-1.8,1.8-1.8h4.5c1,0,1.8,0.8,1.8,1.8v1.2c0,1-0.8,1.8-1.8,1.8
		H93.6z"/>
	<path class="st0" d="M66.5,100c-0.7,0-1.3-0.8-1.3-1.8v-1.2c0-1,0.6-1.8,1.3-1.8h20.1c0.7,0,1.3,0.8,1.3,1.8v1.2
		c0,1-0.6,1.8-1.3,1.8H66.5z"/>
</g>
</svg>
