<?xml version="1.0" encoding="utf-8"?>
<!-- Generator: Adobe Illustrator 22.1.0, SVG Export Plug-In . SVG Version: 6.00 Build 0)  -->
<svg version="1.1" id="Layer_1" xmlns="http://www.w3.org/2000/svg" xmlns:xlink="http://www.w3.org/1999/xlink" x="0px" y="0px"
	 viewBox="0 0 100 100" style="enable-background:new 0 0 100 100;" xml:space="preserve">
<style type="text/css">
	.st0{fill:#FFFFFF;}
</style>
<g>
	<g>
		<path class="st0" d="M97.8,16.7C97.8,16.6,97.8,16.6,97.8,16.7c-0.1-0.3-0.2-0.5-0.4-0.8C97,15.3,96.5,15,96,14.8c0,0,0,0-0.1,0
			c-1.8-1.4-4.1-2.3-6.6-2.3H10.6c-3.3,0-6.2,1.4-8.1,3.7c-0.1,0.1-0.2,0.2-0.3,0.3C2.1,16.6,2,16.7,2,16.8l0,0
			c-1.2,1.8-2,3.9-2,6.2v53.7c0,5.9,4.7,10.6,10.6,10.6h11c2.1,0,3.8-2,3.3-4c-0.4-1.3-1.5-2.2-3-2.2H11.5c-0.2,0-0.3-0.2-0.1-0.3
			l25.4-22c1.3-1.1,1.2-3.1-0.1-4.2l-0.2-0.2c-1.3-1-3.1-0.9-4.3,0.1l-26,22.6c0-0.1,0-0.2,0-0.3V23.9c0-0.2,0.2-0.2,0.3-0.1
			l32.4,25l5.1,3.9l4.2,3.2l0,0c0.6,0.3,1.2,0.6,1.9,0.6c0.6,0,1.2,0,1.9-0.9l0,0l3.8-3l4.9-3.9l33.1-26c0,0.1,0,0.2,0,0.4v53.7
			c0,0.2,0,0.3,0,0.4s-0.2,0.2-0.3,0.1L67.9,55.1c-1.2-1.1-3-1.1-4.3-0.1l0,0c-1.4,1.1-1.5,3.3-0.1,4.5L88,80.9
			c0.1,0.1,0,0.3-0.1,0.3H75.2c-2.1,0-3.7,1.9-3.3,3.9c0.3,1.4,1.4,2.3,3,2.3h14.2c6,0,10.8-4.8,10.8-10.8V23.1
			C99.9,20.6,99.2,18.4,97.8,16.7z M53.4,46.5l-3.3,2.7c-0.1,0.1-0.2,0.1-0.2,0L10.2,18.7c0.1,0,0.3,0,0.4,0h77.6
			c0.2,0,0.3,0.2,0.1,0.3L53.4,46.5z"/>
	</g>
</g>
<g>
	<g>
		<path class="st0" d="M64.1,81.2H35.9c-1.9,0-3.1,1.2-3.1,3.1s1.2,3.1,3.1,3.1H64c1.6,0,3.1-1.2,3.1-3.1
			C67.2,82.4,65.9,81.2,64.1,81.2z"/>
	</g>
</g>
</svg>
